%TF.GenerationSoftware,KiCad,Pcbnew,9.0.3*%
%TF.CreationDate,2025-08-05T08:47:29-06:00*%
%TF.ProjectId,AS15,41533135-2e6b-4696-9361-645f70636258,rev?*%
%TF.SameCoordinates,Original*%
%TF.FileFunction,Soldermask,Top*%
%TF.FilePolarity,Negative*%
%FSLAX46Y46*%
G04 Gerber Fmt 4.6, Leading zero omitted, Abs format (unit mm)*
G04 Created by KiCad (PCBNEW 9.0.3) date 2025-08-05 08:47:29*
%MOMM*%
%LPD*%
G01*
G04 APERTURE LIST*
G04 Aperture macros list*
%AMRoundRect*
0 Rectangle with rounded corners*
0 $1 Rounding radius*
0 $2 $3 $4 $5 $6 $7 $8 $9 X,Y pos of 4 corners*
0 Add a 4 corners polygon primitive as box body*
4,1,4,$2,$3,$4,$5,$6,$7,$8,$9,$2,$3,0*
0 Add four circle primitives for the rounded corners*
1,1,$1+$1,$2,$3*
1,1,$1+$1,$4,$5*
1,1,$1+$1,$6,$7*
1,1,$1+$1,$8,$9*
0 Add four rect primitives between the rounded corners*
20,1,$1+$1,$2,$3,$4,$5,0*
20,1,$1+$1,$4,$5,$6,$7,0*
20,1,$1+$1,$6,$7,$8,$9,0*
20,1,$1+$1,$8,$9,$2,$3,0*%
G04 Aperture macros list end*
%ADD10R,1.700000X1.700000*%
%ADD11C,1.700000*%
%ADD12RoundRect,0.200000X0.200000X0.275000X-0.200000X0.275000X-0.200000X-0.275000X0.200000X-0.275000X0*%
%ADD13RoundRect,0.250000X0.650000X-1.000000X0.650000X1.000000X-0.650000X1.000000X-0.650000X-1.000000X0*%
%ADD14RoundRect,0.225000X-0.375000X0.225000X-0.375000X-0.225000X0.375000X-0.225000X0.375000X0.225000X0*%
%ADD15R,2.600000X2.600000*%
%ADD16C,2.600000*%
%ADD17RoundRect,0.250000X-1.000000X1.950000X-1.000000X-1.950000X1.000000X-1.950000X1.000000X1.950000X0*%
%ADD18RoundRect,0.150000X-0.587500X-0.150000X0.587500X-0.150000X0.587500X0.150000X-0.587500X0.150000X0*%
%ADD19R,1.350000X1.350000*%
%ADD20C,1.350000*%
%ADD21R,1.308000X1.308000*%
%ADD22C,1.308000*%
%ADD23RoundRect,0.250000X-0.475000X0.250000X-0.475000X-0.250000X0.475000X-0.250000X0.475000X0.250000X0*%
%ADD24RoundRect,0.250000X0.250000X0.475000X-0.250000X0.475000X-0.250000X-0.475000X0.250000X-0.475000X0*%
%ADD25R,1.300000X1.500000*%
%ADD26C,0.001000*%
%ADD27C,1.446000*%
%ADD28C,1.530000*%
%ADD29C,2.445000*%
%ADD30R,1.050000X3.210000*%
%ADD31R,10.530000X8.460000*%
%ADD32R,2.715000X2.715000*%
%ADD33C,2.715000*%
%ADD34C,4.485000*%
%ADD35RoundRect,0.250000X-0.250000X-0.475000X0.250000X-0.475000X0.250000X0.475000X-0.250000X0.475000X0*%
%ADD36RoundRect,0.250000X0.475000X-0.250000X0.475000X0.250000X-0.475000X0.250000X-0.475000X-0.250000X0*%
%ADD37RoundRect,0.250000X-1.000000X-0.650000X1.000000X-0.650000X1.000000X0.650000X-1.000000X0.650000X0*%
%ADD38RoundRect,0.102000X-0.990000X-0.990000X0.990000X-0.990000X0.990000X0.990000X-0.990000X0.990000X0*%
%ADD39C,2.184000*%
%ADD40C,2.139000*%
%ADD41R,0.840000X0.840000*%
%ADD42C,0.840000*%
%ADD43O,1.850000X0.850000*%
%ADD44RoundRect,0.200000X-0.200000X-0.275000X0.200000X-0.275000X0.200000X0.275000X-0.200000X0.275000X0*%
%ADD45RoundRect,0.200000X-0.275000X0.200000X-0.275000X-0.200000X0.275000X-0.200000X0.275000X0.200000X0*%
%ADD46RoundRect,0.085500X-0.256500X0.866500X-0.256500X-0.866500X0.256500X-0.866500X0.256500X0.866500X0*%
%ADD47RoundRect,0.250000X-1.950000X-1.000000X1.950000X-1.000000X1.950000X1.000000X-1.950000X1.000000X0*%
%ADD48RoundRect,0.375000X-0.625000X-0.375000X0.625000X-0.375000X0.625000X0.375000X-0.625000X0.375000X0*%
%ADD49RoundRect,0.500000X-0.500000X-1.400000X0.500000X-1.400000X0.500000X1.400000X-0.500000X1.400000X0*%
%ADD50R,1.800000X1.800000*%
%ADD51RoundRect,1.025000X1.125000X-1.025000X1.125000X1.025000X-1.125000X1.025000X-1.125000X-1.025000X0*%
%ADD52R,4.300000X4.100000*%
%ADD53C,3.800000*%
%ADD54R,1.500000X0.650000*%
%ADD55RoundRect,0.200000X0.275000X-0.200000X0.275000X0.200000X-0.275000X0.200000X-0.275000X-0.200000X0*%
%ADD56RoundRect,0.243750X0.456250X-0.243750X0.456250X0.243750X-0.456250X0.243750X-0.456250X-0.243750X0*%
%ADD57R,5.400000X2.900000*%
%ADD58RoundRect,0.250000X1.000000X0.650000X-1.000000X0.650000X-1.000000X-0.650000X1.000000X-0.650000X0*%
%ADD59RoundRect,0.250000X0.620000X0.845000X-0.620000X0.845000X-0.620000X-0.845000X0.620000X-0.845000X0*%
%ADD60O,1.740000X2.190000*%
%ADD61R,2.000000X3.000000*%
%ADD62O,2.000000X3.000000*%
G04 APERTURE END LIST*
D10*
%TO.C,J19*%
X28400000Y-51200000D03*
D11*
X28400000Y-48660000D03*
X28400000Y-46120000D03*
X28400000Y-43580000D03*
X28400000Y-41040000D03*
X28400000Y-38500000D03*
X28400000Y-35960000D03*
X28400000Y-33420000D03*
%TD*%
D12*
%TO.C,R10*%
X148045000Y-54280000D03*
X146395000Y-54280000D03*
%TD*%
D10*
%TO.C,J11*%
X116515000Y-51685000D03*
D11*
X116515000Y-49145000D03*
X116515000Y-46605000D03*
X116515000Y-44065000D03*
X116515000Y-41525000D03*
X116515000Y-38985000D03*
X116515000Y-36445000D03*
X116515000Y-33905000D03*
%TD*%
D13*
%TO.C,D9*%
X136540000Y-90980000D03*
X136540000Y-86980000D03*
%TD*%
D14*
%TO.C,D5*%
X144000000Y-48960000D03*
X144000000Y-52260000D03*
%TD*%
D15*
%TO.C,KF1*%
X178180000Y-116800000D03*
X178180000Y-124420000D03*
D16*
X173100000Y-116800000D03*
X173100000Y-124420000D03*
X168020000Y-116800000D03*
X168020000Y-124420000D03*
X162940000Y-116800000D03*
X162940000Y-124420000D03*
X157860000Y-116800000D03*
X157860000Y-124420000D03*
X152780000Y-116800000D03*
X152780000Y-124420000D03*
%TD*%
D17*
%TO.C,C7*%
X140800000Y-128200000D03*
X140800000Y-136600000D03*
%TD*%
D18*
%TO.C,Q1*%
X135575000Y-97820000D03*
X135575000Y-99720000D03*
X137450000Y-98770000D03*
%TD*%
D10*
%TO.C,J9*%
X116515000Y-92325000D03*
D11*
X116515000Y-89785000D03*
X116515000Y-87245000D03*
X116515000Y-84705000D03*
X116515000Y-82165000D03*
X116515000Y-79625000D03*
%TD*%
D19*
%TO.C,J25*%
X59600000Y-69400000D03*
D20*
X59600000Y-67400000D03*
X59600000Y-65400000D03*
X59600000Y-63400000D03*
X59600000Y-61400000D03*
X59600000Y-59400000D03*
X59600000Y-57400000D03*
X59600000Y-55400000D03*
X59600000Y-53400000D03*
X59600000Y-51400000D03*
%TD*%
D21*
%TO.C,J20*%
X34220000Y-135260000D03*
D22*
X32220000Y-135260000D03*
X30220000Y-135260000D03*
X28220000Y-135260000D03*
%TD*%
D23*
%TO.C,C6*%
X133200000Y-127350000D03*
X133200000Y-129250000D03*
%TD*%
D24*
%TO.C,C14*%
X137350000Y-57640000D03*
X135450000Y-57640000D03*
%TD*%
D10*
%TO.C,J6*%
X131755000Y-51685000D03*
D11*
X131755000Y-49145000D03*
X131755000Y-46605000D03*
X131755000Y-44065000D03*
X131755000Y-41525000D03*
X131755000Y-38985000D03*
X131755000Y-36445000D03*
X131755000Y-33905000D03*
%TD*%
D25*
%TO.C,U2*%
X144510000Y-40630000D03*
X144510000Y-38090000D03*
X135510000Y-38090000D03*
X135510000Y-40630000D03*
%TD*%
D26*
%TO.C,J8*%
X178600000Y-33689500D03*
X178600000Y-45119500D03*
D27*
X172250000Y-43849500D03*
X169710000Y-42579500D03*
X172250000Y-41309500D03*
X169710000Y-40039500D03*
X172250000Y-38769500D03*
X169710000Y-37499500D03*
X172250000Y-36229500D03*
X169710000Y-34959500D03*
D28*
X183500000Y-46029500D03*
X183500000Y-43489500D03*
X183500000Y-35319500D03*
X183500000Y-32779500D03*
D29*
X175550000Y-47149500D03*
X175550000Y-31659500D03*
%TD*%
D30*
%TO.C,IC2*%
X129800000Y-125070000D03*
X128100000Y-125070000D03*
X126400000Y-125070000D03*
X124700000Y-125070000D03*
X123000000Y-125070000D03*
D31*
X126400000Y-134700000D03*
%TD*%
D23*
%TO.C,C3*%
X116480000Y-95410000D03*
X116480000Y-97310000D03*
%TD*%
D32*
%TO.C,J7*%
X163500000Y-94720000D03*
D33*
X163500000Y-90275000D03*
X163500000Y-85830000D03*
X163500000Y-81380000D03*
X163500000Y-76935000D03*
X163500000Y-72490000D03*
X169850000Y-72490000D03*
X169850000Y-76935000D03*
X169850000Y-81380000D03*
X169850000Y-85830000D03*
X169850000Y-90275000D03*
X169850000Y-94720000D03*
D34*
X164520000Y-101145000D03*
X175950000Y-83605000D03*
X164520000Y-66065000D03*
%TD*%
D35*
%TO.C,C16*%
X144310000Y-61900000D03*
X146210000Y-61900000D03*
%TD*%
D10*
%TO.C,J16*%
X76660000Y-68980000D03*
D11*
X76660000Y-66440000D03*
X76660000Y-63900000D03*
X76660000Y-61360000D03*
X76660000Y-58820000D03*
X76660000Y-56280000D03*
X76660000Y-53740000D03*
X76660000Y-51200000D03*
%TD*%
D24*
%TO.C,C4*%
X104530000Y-103290000D03*
X102630000Y-103290000D03*
%TD*%
D14*
%TO.C,D4*%
X144520000Y-43560000D03*
X144520000Y-46860000D03*
%TD*%
D25*
%TO.C,U1*%
X144540000Y-34780000D03*
X144540000Y-32240000D03*
X135540000Y-32240000D03*
X135540000Y-34780000D03*
%TD*%
D10*
%TO.C,J18*%
X28400000Y-78120000D03*
D11*
X28400000Y-75580000D03*
X28400000Y-73040000D03*
X28400000Y-70500000D03*
X28400000Y-67960000D03*
X28400000Y-65420000D03*
X28400000Y-62880000D03*
X28400000Y-60340000D03*
X28400000Y-57800000D03*
X28400000Y-55260000D03*
%TD*%
D36*
%TO.C,C2*%
X163600000Y-33820000D03*
X163600000Y-31920000D03*
%TD*%
D37*
%TO.C,D6*%
X131460000Y-102840000D03*
X135460000Y-102840000D03*
%TD*%
D12*
%TO.C,R5*%
X148095000Y-57610000D03*
X146445000Y-57610000D03*
%TD*%
D14*
%TO.C,D7*%
X139630000Y-50550000D03*
X139630000Y-53850000D03*
%TD*%
D38*
%TO.C,K2*%
X142812500Y-74560000D03*
D39*
X142812500Y-86560000D03*
D40*
X140812500Y-80560000D03*
D39*
X155012500Y-86560000D03*
%TD*%
D19*
%TO.C,J3*%
X118953400Y-79355000D03*
D20*
X118953400Y-77355000D03*
X120953400Y-79355000D03*
X120953400Y-77355000D03*
X122953400Y-79355000D03*
X122953400Y-77355000D03*
%TD*%
D41*
%TO.C,J15*%
X64760000Y-59130000D03*
D42*
X65760000Y-58480000D03*
X64760000Y-57830000D03*
X65760000Y-57180000D03*
X64760000Y-56530000D03*
D43*
X64980000Y-61405000D03*
X64980000Y-54255000D03*
%TD*%
D35*
%TO.C,C18*%
X94730000Y-31210000D03*
X96630000Y-31210000D03*
%TD*%
D12*
%TO.C,R8*%
X136465000Y-46040000D03*
X134815000Y-46040000D03*
%TD*%
D35*
%TO.C,C10*%
X173150000Y-138300000D03*
X175050000Y-138300000D03*
%TD*%
D44*
%TO.C,R15*%
X135815000Y-78190000D03*
X137465000Y-78190000D03*
%TD*%
%TO.C,R2*%
X146615000Y-42080000D03*
X148265000Y-42080000D03*
%TD*%
D45*
%TO.C,R11*%
X143630000Y-54275000D03*
X143630000Y-55925000D03*
%TD*%
D10*
%TO.C,J4*%
X131755000Y-92325000D03*
D11*
X131755000Y-89785000D03*
X131755000Y-87245000D03*
X131755000Y-84705000D03*
X131755000Y-82165000D03*
X131755000Y-79625000D03*
%TD*%
D46*
%TO.C,U3*%
X141085000Y-60927500D03*
X140435000Y-60927500D03*
X139785000Y-60927500D03*
X139135000Y-60927500D03*
X138485000Y-60927500D03*
X137835000Y-60927500D03*
X137185000Y-60927500D03*
X136535000Y-60927500D03*
X136535000Y-67847500D03*
X137185000Y-67847500D03*
X137835000Y-67847500D03*
X138485000Y-67847500D03*
X139135000Y-67847500D03*
X139785000Y-67847500D03*
X140435000Y-67847500D03*
X141085000Y-67847500D03*
%TD*%
D45*
%TO.C,R16*%
X151870000Y-49440000D03*
X151870000Y-51090000D03*
%TD*%
D47*
%TO.C,C8*%
X127170000Y-111780000D03*
X135570000Y-111780000D03*
%TD*%
D10*
%TO.C,J2*%
X84420000Y-92300000D03*
D11*
X84420000Y-89760000D03*
X84420000Y-87220000D03*
X84420000Y-84680000D03*
X84420000Y-82140000D03*
X84420000Y-79600000D03*
%TD*%
D44*
%TO.C,R4*%
X40670000Y-65430000D03*
X42320000Y-65430000D03*
%TD*%
D19*
%TO.C,J26*%
X37600000Y-69400000D03*
D20*
X37600000Y-67400000D03*
X37600000Y-65400000D03*
X37600000Y-63400000D03*
X37600000Y-61400000D03*
X37600000Y-59400000D03*
X37600000Y-57400000D03*
X37600000Y-55400000D03*
X37600000Y-53400000D03*
X37600000Y-51400000D03*
%TD*%
D48*
%TO.C,IC1*%
X106980000Y-101090000D03*
X106980000Y-103390000D03*
X106980000Y-105690000D03*
D49*
X113280000Y-103390000D03*
%TD*%
D36*
%TO.C,C1*%
X106500000Y-92325000D03*
X106500000Y-90425000D03*
%TD*%
D10*
%TO.C,J14*%
X151810000Y-55530000D03*
D11*
X151810000Y-58070000D03*
X151810000Y-60610000D03*
%TD*%
D50*
%TO.C,D2*%
X118100000Y-124600000D03*
X118100000Y-120600000D03*
%TD*%
D14*
%TO.C,D8*%
X140680000Y-44840000D03*
X140680000Y-48140000D03*
%TD*%
D51*
%TO.C,D1*%
X150000000Y-135600000D03*
D52*
X158200000Y-135600000D03*
%TD*%
D53*
%TO.C,H1*%
X113110000Y-29970000D03*
%TD*%
D54*
%TO.C,U4*%
X165100000Y-134595000D03*
X165100000Y-135865000D03*
X165100000Y-137135000D03*
X165100000Y-138405000D03*
X170500000Y-138405000D03*
X170500000Y-137135000D03*
X170500000Y-135865000D03*
X170500000Y-134595000D03*
%TD*%
D55*
%TO.C,R7*%
X132700000Y-123406250D03*
X132700000Y-121756250D03*
%TD*%
D35*
%TO.C,C9*%
X173250000Y-133700000D03*
X175150000Y-133700000D03*
%TD*%
D10*
%TO.C,J17*%
X76660000Y-46120000D03*
D11*
X76660000Y-43580000D03*
X76660000Y-41040000D03*
X76660000Y-38500000D03*
X76660000Y-35960000D03*
X76660000Y-33420000D03*
%TD*%
D56*
%TO.C,D3*%
X137100000Y-123418750D03*
X137100000Y-121543750D03*
%TD*%
D24*
%TO.C,C12*%
X73050000Y-61800000D03*
X71150000Y-61800000D03*
%TD*%
%TO.C,C5*%
X106860000Y-108180000D03*
X104960000Y-108180000D03*
%TD*%
D10*
%TO.C,J21*%
X91980000Y-35050000D03*
D11*
X94520000Y-35050000D03*
X97060000Y-35050000D03*
X99600000Y-35050000D03*
X102140000Y-35050000D03*
%TD*%
D24*
%TO.C,C11*%
X141590000Y-57610000D03*
X139690000Y-57610000D03*
%TD*%
D38*
%TO.C,K1*%
X142670000Y-91810000D03*
D39*
X142670000Y-103810000D03*
D40*
X140670000Y-97810000D03*
D39*
X154870000Y-103810000D03*
%TD*%
D23*
%TO.C,C13*%
X63800000Y-69350000D03*
X63800000Y-71250000D03*
%TD*%
D35*
%TO.C,C17*%
X144300000Y-64620000D03*
X146200000Y-64620000D03*
%TD*%
D44*
%TO.C,R14*%
X135545000Y-94770000D03*
X137195000Y-94770000D03*
%TD*%
D57*
%TO.C,L2*%
X108080000Y-136920000D03*
X108080000Y-127020000D03*
%TD*%
D58*
%TO.C,D12*%
X154870000Y-39360000D03*
X150870000Y-39360000D03*
%TD*%
D18*
%TO.C,Q2*%
X135825000Y-81190000D03*
X135825000Y-83090000D03*
X137700000Y-82140000D03*
%TD*%
D59*
%TO.C,J13*%
X35530000Y-108220000D03*
D60*
X32990000Y-108220000D03*
X30450000Y-108220000D03*
X27910000Y-108220000D03*
%TD*%
D10*
%TO.C,J5*%
X131755000Y-74545000D03*
D11*
X131755000Y-72005000D03*
X131755000Y-69465000D03*
X131755000Y-66925000D03*
X131755000Y-64385000D03*
X131755000Y-61845000D03*
X131755000Y-59305000D03*
X131755000Y-56765000D03*
%TD*%
D61*
%TO.C,F1*%
X157305000Y-111355000D03*
D62*
X153605000Y-111355000D03*
X149305000Y-111355000D03*
X145605000Y-111355000D03*
%TD*%
D12*
%TO.C,R3*%
X136735000Y-50640000D03*
X135085000Y-50640000D03*
%TD*%
D24*
%TO.C,C15*%
X140390000Y-70900000D03*
X138490000Y-70900000D03*
%TD*%
D58*
%TO.C,D11*%
X154510000Y-32810000D03*
X150510000Y-32810000D03*
%TD*%
D44*
%TO.C,R1*%
X146915000Y-35440000D03*
X148565000Y-35440000D03*
%TD*%
D10*
%TO.C,J10*%
X116515000Y-74545000D03*
D11*
X116515000Y-72005000D03*
X116515000Y-69465000D03*
X116515000Y-66925000D03*
X116515000Y-64385000D03*
X116515000Y-61845000D03*
X116515000Y-59305000D03*
X116515000Y-56765000D03*
%TD*%
D12*
%TO.C,R6*%
X156720000Y-49440000D03*
X155070000Y-49440000D03*
%TD*%
D10*
%TO.C,J1*%
X102200000Y-92300000D03*
D11*
X102200000Y-89760000D03*
X102200000Y-87220000D03*
X102200000Y-84680000D03*
X102200000Y-82140000D03*
X102200000Y-79600000D03*
%TD*%
M02*
