M48
; DRILL file {KiCad 9.0.3} date 2025-08-05T08:47:29-0600
; FORMAT={-:-/ absolute / inch / decimal}
; #@! TF.CreationDate,2025-08-05T08:47:29-06:00
; #@! TF.GenerationSoftware,Kicad,Pcbnew,9.0.3
; #@! TF.FileFunction,Plated,1,2,PTH
FMAT,2
INCH
; #@! TA.AperFunction,Plated,PTH,ComponentDrill
T1C0.0138
; #@! TA.AperFunction,Plated,PTH,ViaDrill
T2C0.0157
; #@! TA.AperFunction,Plated,PTH,ComponentDrill
T3C0.0173
; #@! TA.AperFunction,Plated,PTH,ComponentDrill
T4C0.0197
; #@! TA.AperFunction,Plated,PTH,ComponentDrill
T5C0.0315
; #@! TA.AperFunction,Plated,PTH,ComponentDrill
T6C0.0350
; #@! TA.AperFunction,Plated,PTH,ComponentDrill
T7C0.0394
; #@! TA.AperFunction,Plated,PTH,ComponentDrill
T8C0.0402
; #@! TA.AperFunction,Plated,PTH,ComponentDrill
T9C0.0469
; #@! TA.AperFunction,Plated,PTH,ComponentDrill
T10C0.0508
; #@! TA.AperFunction,Plated,PTH,ComponentDrill
T11C0.0512
; #@! TA.AperFunction,Plated,PTH,ComponentDrill
T12C0.0520
; #@! TA.AperFunction,Plated,PTH,ComponentDrill
T13C0.0642
; #@! TA.AperFunction,Plated,PTH,ComponentDrill
T14C0.0713
; #@! TA.AperFunction,Plated,PTH,ComponentDrill
T15C0.0866
; #@! TA.AperFunction,Plated,PTH,ComponentDrill
T16C0.1177
%
G90
G05
T2
X1.2402Y-2.6622
X1.3457Y-2.4823
X1.348Y-4.8803
X1.8256Y-2.0343
X1.9634Y-1.5126
X2.0866Y-2.1787
X2.4642Y-2.6268
X2.498Y-2.0272
X2.5138Y-2.8618
X2.7382Y-2.4343
X2.7606Y-3.3791
X2.774Y-1.2307
X2.776Y-3.4854
X2.8039Y-2.1193
X2.8083Y-2.2142
X2.8701Y-2.5126
X2.8701Y-2.6626
X2.9461Y-1.0866
X3.5094Y-3.4327
X3.6067Y-2.2043
X3.6378Y-2.5268
X3.9732Y-4.0669
X4.0579Y-4.2587
X4.1622Y-3.3807
X4.1638Y-3.4787
X4.2437Y-3.8965
X4.2575Y-3.5594
X4.3098Y-1.3457
X4.6547Y-3.8728
X4.7331Y-3.5449
X4.7496Y-3.2874
X4.7646Y-4.7319
X4.7988Y-2.2106
X4.8016Y-2.9409
X4.8457Y-4.811
X4.8567Y-3.5256
X4.9764Y-4.8075
X5.0114Y-1.8161
X5.237Y-5.3453
X5.2386Y-5.285
X5.2429Y-5.1563
X5.2508Y-3.8949
X5.265Y-1.2433
X5.2693Y-3.8016
X5.289Y-3.7331
X5.3469Y-3.326
X5.3512Y-1.4362
X5.3933Y-2.8386
X5.3972Y-4.9248
X5.4008Y-5.4492
X5.415Y-2.1189
X5.4228Y-4.511
X5.4247Y-1.8191
X5.4531Y-2.5874
X5.4563Y-1.8949
X5.6563Y-2.2575
X5.6567Y-2.3575
X5.702Y-2.3094
X5.7276Y-3.6547
X5.8106Y-2.7646
X5.8209Y-2.4398
X5.8283Y-2.5433
X5.8843Y-1.902
X6.0291Y-2.0504
X6.1563Y-1.4193
X6.2508Y-2.7681
X6.2614Y-1.7874
X6.3315Y-5.2354
X6.3366Y-5.3264
X6.3669Y-1.2496
X6.3803Y-2.4555
X6.4327Y-5.3264
X6.5697Y-5.4055
X6.7067Y-5.5012
X6.748Y-1.2772
X6.8539Y-5.3224
X6.8543Y-5.5055
X6.9323Y-5.3528
X6.9496Y-5.2177
T3
X2.5496Y-2.2256
X2.5496Y-2.2768
X2.5496Y-2.328
X2.589Y-2.2512
X2.589Y-2.3024
T5
X1.111Y-5.3252
X1.1898Y-5.3252
X1.2685Y-5.3252
X1.3472Y-5.3252
X1.4803Y-2.0236
X1.4803Y-2.1024
X1.4803Y-2.1811
X1.4803Y-2.2598
X1.4803Y-2.3386
X1.4803Y-2.4173
X1.4803Y-2.4961
X1.4803Y-2.5748
X1.4803Y-2.6535
X1.4803Y-2.7323
X2.3465Y-2.0236
X2.3465Y-2.1024
X2.3465Y-2.1811
X2.3465Y-2.2598
X2.3465Y-2.3386
X2.3465Y-2.4173
X2.3465Y-2.4961
X2.3465Y-2.5748
X2.3465Y-2.6535
X2.3465Y-2.7323
X4.6832Y-3.0455
X4.6832Y-3.1242
X4.7619Y-3.0455
X4.7619Y-3.1242
X4.8407Y-3.0455
X4.8407Y-3.1242
T6
X6.6815Y-1.3764
X6.6815Y-1.4764
X6.6815Y-1.5764
X6.6815Y-1.6764
X6.7815Y-1.4264
X6.7815Y-1.5264
X6.7815Y-1.6264
X6.7815Y-1.7264
T7
X1.1181Y-1.3157
X1.1181Y-1.4157
X1.1181Y-1.5157
X1.1181Y-1.6157
X1.1181Y-1.7157
X1.1181Y-1.8157
X1.1181Y-1.9157
X1.1181Y-2.0157
X1.1181Y-2.1756
X1.1181Y-2.2756
X1.1181Y-2.3756
X1.1181Y-2.4756
X1.1181Y-2.5756
X1.1181Y-2.6756
X1.1181Y-2.7756
X1.1181Y-2.8756
X1.1181Y-2.9756
X1.1181Y-3.0756
X3.0181Y-1.3157
X3.0181Y-1.4157
X3.0181Y-1.5157
X3.0181Y-1.6157
X3.0181Y-1.7157
X3.0181Y-1.8157
X3.0181Y-2.0157
X3.0181Y-2.1157
X3.0181Y-2.2157
X3.0181Y-2.3157
X3.0181Y-2.4157
X3.0181Y-2.5157
X3.0181Y-2.6157
X3.0181Y-2.7157
X3.3236Y-3.1339
X3.3236Y-3.2339
X3.3236Y-3.3339
X3.3236Y-3.4339
X3.3236Y-3.5339
X3.3236Y-3.6339
X3.6213Y-1.3799
X3.7213Y-1.3799
X3.8213Y-1.3799
X3.9213Y-1.3799
X4.0213Y-1.3799
X4.0236Y-3.1339
X4.0236Y-3.2339
X4.0236Y-3.3339
X4.0236Y-3.4339
X4.0236Y-3.5339
X4.0236Y-3.6339
X4.5872Y-1.3348
X4.5872Y-1.4348
X4.5872Y-1.5348
X4.5872Y-1.6348
X4.5872Y-1.7348
X4.5872Y-1.8348
X4.5872Y-1.9348
X4.5872Y-2.0348
X4.5872Y-2.2348
X4.5872Y-2.3348
X4.5872Y-2.4348
X4.5872Y-2.5348
X4.5872Y-2.6348
X4.5872Y-2.7348
X4.5872Y-2.8348
X4.5872Y-2.9348
X4.5872Y-3.1348
X4.5872Y-3.2348
X4.5872Y-3.3348
X4.5872Y-3.4348
X4.5872Y-3.5348
X4.5872Y-3.6348
X5.1872Y-1.3348
X5.1872Y-1.4348
X5.1872Y-1.5348
X5.1872Y-1.6348
X5.1872Y-1.7348
X5.1872Y-1.8348
X5.1872Y-1.9348
X5.1872Y-2.0348
X5.1872Y-2.2348
X5.1872Y-2.3348
X5.1872Y-2.4348
X5.1872Y-2.5348
X5.1872Y-2.6348
X5.1872Y-2.7348
X5.1872Y-2.8348
X5.1872Y-2.9348
X5.1872Y-3.1348
X5.1872Y-3.2348
X5.1872Y-3.3348
X5.1872Y-3.4348
X5.1872Y-3.5348
X5.1872Y-3.6348
X5.9768Y-2.1862
X5.9768Y-2.2862
X5.9768Y-2.3862
T8
X7.2244Y-1.2905
X7.2244Y-1.3905
X7.2244Y-1.7122
X7.2244Y-1.8122
T9
X1.0988Y-4.2606
X1.1988Y-4.2606
X1.2988Y-4.2606
X1.3988Y-4.2606
T10
X5.5382Y-3.8508
X5.5438Y-3.1717
T11
X6.015Y-4.5984
X6.015Y-4.8984
X6.215Y-4.5984
X6.215Y-4.8984
X6.415Y-4.5984
X6.415Y-4.8984
X6.615Y-4.5984
X6.615Y-4.8984
X6.815Y-4.5984
X6.815Y-4.8984
X7.015Y-4.5984
X7.015Y-4.8984
T12
X5.6169Y-3.6146
X5.6169Y-4.087
X5.6225Y-2.9354
X5.6225Y-3.4079
X6.0972Y-4.087
X6.1029Y-3.4079
T13
X6.9114Y-1.2464
X6.9114Y-1.8563
T14
X6.437Y-2.8539
X6.437Y-3.0289
X6.437Y-3.2039
X6.437Y-3.3791
X6.437Y-3.5541
X6.437Y-3.7291
X6.687Y-2.8539
X6.687Y-3.0289
X6.687Y-3.2039
X6.687Y-3.3791
X6.687Y-3.5541
X6.687Y-3.7291
T15
X4.4531Y-1.1799
T16
X6.4772Y-2.601
X6.4772Y-3.9821
X6.9272Y-3.2915
T1
G00X2.5386Y-2.136
M15
G01X2.578Y-2.136
M16
G05
G00X2.5386Y-2.4175
M15
G01X2.578Y-2.4175
M16
G05
T4
G00X5.7325Y-4.3565
M15
G01X5.7325Y-4.4116
M16
G05
G00X5.8781Y-4.3565
M15
G01X5.8781Y-4.4116
M16
G05
G00X6.0474Y-4.3565
M15
G01X6.0474Y-4.4116
M16
G05
G00X6.1931Y-4.3565
M15
G01X6.1931Y-4.4116
M16
G05
M30
